# xmcd
#
# Track frame offsets: 
#        150
#        8364
#        25550
#        37957
#        49216
#        65859
#        80787
#        96842
#        114155
#        127374
#        143163
#        159883
#        178783
#        181651
#        194931
#        211500
#        228198
#        242665
#        256530
#        268818
#        283677
#        311684
#
# Disc length: 4206 seconds
#
# Revision: 0
# Processed by: cddbd v1.5.2PL0 Copyright (c) Steve Scherf et al.
# Submitted via: ExactAudioCopy v1.0b1
#
DISCID=2c106c16
DTITLE=Sarajevo Kids - Ghetto Report
DYEAR=2006
DGENRE=Hip-Hop
TTITLE0=Intro
TTITLE1=Killa kids
TTITLE2=Nicht zu stoppen
TTITLE3=Clowns im game
TTITLE4=Ja sanjam
TTITLE5=Wer schiesst
TTITLE6=Für die Toten
TTITLE7=Wir verteilen Boxxas
TTITLE8=Mein Leben
TTITLE9=Ghetto Report
TTITLE10=Gun clappa
TTITLE11=Kaltherzig
TTITLE12=Skit: Knast
TTITLE13=Mir egal
TTITLE14=Keine Gangster
TTITLE15=Kriminelle Ader
TTITLE16=Paranoia
TTITLE17=Männer weinen nicht
TTITLE18=Nur ein Hater
TTITLE19=Subwoofer dröhnen
TTITLE20=Back down
TTITLE21=(Data Track)
EXTD=
EXTT0=
EXTT1=
EXTT2=
EXTT3=
EXTT4=
EXTT5=
EXTT6=
EXTT7=
EXTT8=
EXTT9=
EXTT10=
EXTT11=
EXTT12=
EXTT13=
EXTT14=
EXTT15=
EXTT16=
EXTT17=
EXTT18=
EXTT19=
EXTT20=
EXTT21=
PLAYORDER=
